<?xml version="1.0" encoding="UTF-8"?>
<svg xmlns="http://www.w3.org/2000/svg" width="320" height="220" viewBox="0 0 240 180" role="img" aria-labelledby="title desc">
  <title>Teal Quince</title>
  <desc>Teal Quince strand thumbnail for herb</desc>
  <defs>
    <linearGradient id="bg" x1="0%" y1="0%" x2="100%" y2="100%">
      <stop offset="0%" stop-color="hsl(343 82% 94%)" />
      <stop offset="100%" stop-color="hsl(21 78% 84%)" />
    </linearGradient>
    <filter id="shadow" x="-20%" y="-20%" width="140%" height="140%">
      <feDropShadow dx="0" dy="10" stdDeviation="10" flood-color="rgba(31,44,38,0.16)" />
    </filter>
  </defs>
  <rect x="0" y="0" width="240" height="180" rx="28" fill="url(#bg)" />
  <circle cx="200" cy="38" r="26" fill="hsl(21 74% 72%)" opacity="0.45" />
  <circle cx="38" cy="30" r="18" fill="hsl(151 64% 78%)" opacity="0.55" />
  <rect x="20" y="20" width="200" height="140" rx="22" fill="rgba(255,255,255,0.42)" filter="url(#shadow)" />
  <g transform="translate(0 2)">
    
      <path d="M119 52c0 40-18 68-44 96" stroke="hsl(151 34% 28%)" stroke-width="8" fill="none" stroke-linecap="round" />
      <path d="M117 68c-24 3-40 18-52 36c18 2 34-2 48-14c6-5 9-11 12-22Z" fill="hsl(21 58% 62%)" />
      <path d="M122 86c24 3 40 18 52 36c-18 2-34-2-48-14c-6-5-9-11-12-22Z" fill="hsl(21 58% 62%)" opacity="0.86" />
      <path d="M110 110c12 10 19 26 18 46" stroke="hsl(151 34% 28%)" stroke-width="6" fill="none" stroke-linecap="round" />
    
  </g>
  <rect x="24" y="142" width="192" height="26" rx="13" fill="rgba(255,255,255,0.72)" />
  <text x="120" y="159" font-family="Georgia, 'Times New Roman', serif" font-size="14" font-weight="700" text-anchor="middle" fill="hsl(151 34% 28%)">Teal Quince</text>
  <text x="120" y="170" font-family="system-ui, sans-serif" font-size="9" text-anchor="middle" letter-spacing="1.2" fill="hsl(151 34% 28%)" opacity="0.72">HERB</text>
  <text x="28" y="36" font-family="system-ui, sans-serif" font-size="8" font-weight="700" letter-spacing="2" fill="hsl(151 34% 28%)" opacity="0.65">gen_0917_teal_quince</text>
</svg>