<?xml version="1.0" encoding="UTF-8"?>
<svg xmlns="http://www.w3.org/2000/svg" width="320" height="220" viewBox="0 0 240 180" role="img" aria-labelledby="title desc">
  <title>Saffron Zinnia</title>
  <desc>Saffron Zinnia strand thumbnail for fern</desc>
  <defs>
    <linearGradient id="bg" x1="0%" y1="0%" x2="100%" y2="100%">
      <stop offset="0%" stop-color="hsl(265 82% 94%)" />
      <stop offset="100%" stop-color="hsl(303 78% 84%)" />
    </linearGradient>
    <filter id="shadow" x="-20%" y="-20%" width="140%" height="140%">
      <feDropShadow dx="0" dy="10" stdDeviation="10" flood-color="rgba(31,44,38,0.16)" />
    </filter>
  </defs>
  <rect x="0" y="0" width="240" height="180" rx="28" fill="url(#bg)" />
  <circle cx="200" cy="38" r="26" fill="hsl(303 74% 72%)" opacity="0.45" />
  <circle cx="38" cy="30" r="18" fill="hsl(73 64% 78%)" opacity="0.55" />
  <rect x="20" y="20" width="200" height="140" rx="22" fill="rgba(255,255,255,0.42)" filter="url(#shadow)" />
  <g transform="translate(0 2)">
    
      <path d="M120 48c0 34 0 72-2 108" stroke="hsl(73 34% 28%)" stroke-width="7" fill="none" stroke-linecap="round" />
      <path d="M120 68c-30 10-42 26-52 40c18-2 30-8 44-16" fill="hsl(303 58% 62%)" />
      <path d="M120 84c24 8 42 22 54 38c-18-2-32-7-46-15" fill="hsl(303 58% 62%)" opacity="0.9" />
      <path d="M120 100c-26 8-40 20-50 36c18-2 30-6 42-14" fill="hsl(303 58% 62%)" opacity="0.8" />
      <path d="M120 116c22 6 36 18 46 32c-16-2-26-6-38-12" fill="hsl(303 58% 62%)" opacity="0.7" />
    
  </g>
  <rect x="24" y="142" width="192" height="26" rx="13" fill="rgba(255,255,255,0.72)" />
  <text x="120" y="159" font-family="Georgia, 'Times New Roman', serif" font-size="14" font-weight="700" text-anchor="middle" fill="hsl(73 34% 28%)">Saffron Zinnia</text>
  <text x="120" y="170" font-family="system-ui, sans-serif" font-size="9" text-anchor="middle" letter-spacing="1.2" fill="hsl(73 34% 28%)" opacity="0.72">FERN</text>
  <text x="28" y="36" font-family="system-ui, sans-serif" font-size="8" font-weight="700" letter-spacing="2" fill="hsl(73 34% 28%)" opacity="0.65">gen_0775_saffron_zinnia</text>
</svg>